<svg xmlns="http://www.w3.org/2000/svg" viewBox="0 0 96 96" shape-rendering="crispEdges" role="img" aria-label="Champion Lance pixel sprite">
  <rect width="96" height="96" fill="none"/>
  <rect x="36" y="8" width="24" height="8" fill="#d43a2f"/>
  <rect x="28" y="16" width="40" height="8" fill="#d43a2f"/>
  <rect x="24" y="24" width="16" height="8" fill="#d43a2f"/>
  <rect x="56" y="24" width="16" height="8" fill="#d43a2f"/>
  <rect x="32" y="24" width="32" height="24" fill="#f1c27d"/>
  <rect x="32" y="32" width="8" height="8" fill="#18224a"/>
  <rect x="56" y="32" width="8" height="8" fill="#18224a"/>
  <rect x="40" y="40" width="16" height="8" fill="#9b4b30"/>
  <rect x="24" y="48" width="48" height="8" fill="#18224a"/>
  <rect x="16" y="56" width="16" height="24" fill="#d43a2f"/>
  <rect x="64" y="56" width="16" height="24" fill="#d43a2f"/>
  <rect x="32" y="56" width="32" height="24" fill="#2a75bb"/>
  <rect x="40" y="56" width="16" height="8" fill="#ffffff"/>
  <rect x="32" y="80" width="8" height="8" fill="#18224a"/>
  <rect x="56" y="80" width="8" height="8" fill="#18224a"/>
  <rect x="8" y="64" width="16" height="16" fill="#ef3e33"/>
  <rect x="72" y="64" width="16" height="16" fill="#ef3e33"/>
  <rect x="16" y="80" width="16" height="8" fill="#b82424"/>
  <rect x="64" y="80" width="16" height="8" fill="#b82424"/>
</svg>
