<svg xmlns="http://www.w3.org/2000/svg" viewBox="0 0 96 96" shape-rendering="crispEdges" role="img" aria-label="Master Ball">
  <rect width="96" height="96" fill="none"/>
  <rect x="24" y="8" width="48" height="8" fill="#281a55"/>
  <rect x="16" y="16" width="64" height="8" fill="#281a55"/>
  <rect x="8" y="24" width="80" height="24" fill="#281a55"/>
  <rect x="8" y="48" width="80" height="8" fill="#281a55"/>
  <rect x="8" y="56" width="80" height="16" fill="#281a55"/>
  <rect x="16" y="72" width="64" height="8" fill="#281a55"/>
  <rect x="24" y="80" width="48" height="8" fill="#281a55"/>
  <rect x="24" y="16" width="48" height="8" fill="#7a4edb"/>
  <rect x="16" y="24" width="64" height="16" fill="#7a4edb"/>
  <rect x="16" y="40" width="24" height="8" fill="#7a4edb"/>
  <rect x="56" y="40" width="24" height="8" fill="#7a4edb"/>
  <rect x="24" y="24" width="8" height="8" fill="#ef6cc9"/>
  <rect x="64" y="24" width="8" height="8" fill="#ef6cc9"/>
  <rect x="32" y="28" width="8" height="16" fill="#fffaf0"/>
  <rect x="40" y="36" width="8" height="8" fill="#fffaf0"/>
  <rect x="48" y="28" width="8" height="16" fill="#fffaf0"/>
  <rect x="16" y="56" width="24" height="16" fill="#fffaf0"/>
  <rect x="56" y="56" width="24" height="16" fill="#fffaf0"/>
  <rect x="24" y="72" width="48" height="8" fill="#fffaf0"/>
  <rect x="32" y="80" width="32" height="8" fill="#fffaf0"/>
  <rect x="40" y="40" width="16" height="8" fill="#281a55"/>
  <rect x="32" y="48" width="32" height="8" fill="#281a55"/>
  <rect x="40" y="56" width="16" height="8" fill="#281a55"/>
  <rect x="40" y="48" width="16" height="8" fill="#fffaf0"/>
</svg>
