<svg xmlns="http://www.w3.org/2000/svg" viewBox="0 0 96 96" shape-rendering="crispEdges" role="img" aria-label="Pikachu pixel sprite">
  <rect width="96" height="96" fill="none"/>
  <rect x="16" y="8" width="8" height="24" fill="#3a260d"/>
  <rect x="72" y="8" width="8" height="24" fill="#3a260d"/>
  <rect x="24" y="16" width="8" height="24" fill="#ffd447"/>
  <rect x="64" y="16" width="8" height="24" fill="#ffd447"/>
  <rect x="32" y="24" width="32" height="8" fill="#ffd447"/>
  <rect x="24" y="32" width="48" height="8" fill="#ffd447"/>
  <rect x="16" y="40" width="64" height="32" fill="#ffd447"/>
  <rect x="24" y="72" width="48" height="8" fill="#ffd447"/>
  <rect x="32" y="80" width="8" height="8" fill="#ffd447"/>
  <rect x="56" y="80" width="8" height="8" fill="#ffd447"/>
  <rect x="28" y="48" width="8" height="8" fill="#111827"/>
  <rect x="60" y="48" width="8" height="8" fill="#111827"/>
  <rect x="44" y="56" width="8" height="8" fill="#3a260d"/>
  <rect x="36" y="64" width="24" height="8" fill="#3a260d"/>
  <rect x="16" y="56" width="8" height="8" fill="#ef3e33"/>
  <rect x="72" y="56" width="8" height="8" fill="#ef3e33"/>
  <rect x="8" y="48" width="8" height="16" fill="#ffd447"/>
  <rect x="80" y="48" width="8" height="16" fill="#ffd447"/>
  <rect x="8" y="64" width="8" height="8" fill="#c58a17"/>
  <rect x="80" y="64" width="8" height="8" fill="#c58a17"/>
</svg>
